<svg width="780" height="320" xmlns="http://www.w3.org/2000/svg" xmlns:xlink="http://www.w3.org/1999/xlink" version="1.1" baseProfile="full" viewBox="0 0 780 320">
<rect width="780" height="320" x="0" y="0" fill="#fff"></rect>
<path d="M110.5 66L110.5 296" fill="none" pointer-events="visible" stroke="#E2E8F0" class="zr1-cls-3"></path>
<path d="M228.5 66L228.5 296" fill="none" pointer-events="visible" stroke="#E2E8F0" class="zr1-cls-3"></path>
<path d="M346.5 66L346.5 296" fill="none" pointer-events="visible" stroke="#E2E8F0" class="zr1-cls-3"></path>
<path d="M464.5 66L464.5 296" fill="none" pointer-events="visible" stroke="#E2E8F0" class="zr1-cls-3"></path>
<path d="M582.5 66L582.5 296" fill="none" pointer-events="visible" stroke="#E2E8F0" class="zr1-cls-3"></path>
<path d="M700.5 66L700.5 296" fill="none" pointer-events="visible" stroke="#E2E8F0" class="zr1-cls-3"></path>
<text dominant-baseline="central" text-anchor="end" style="font-size:12px;font-family:Inter, system-ui, -apple-system, Segoe UI, sans-serif;" transform="translate(102 89)" fill="#0F172A">p2</text>
<text dominant-baseline="central" text-anchor="end" style="font-size:12px;font-family:Inter, system-ui, -apple-system, Segoe UI, sans-serif;" transform="translate(102 135)" fill="#0F172A">p25</text>
<text dominant-baseline="central" text-anchor="end" style="font-size:12px;font-family:Inter, system-ui, -apple-system, Segoe UI, sans-serif;" xml:space="preserve" transform="translate(102 181)" fill="#0F172A">p50 (median)</text>
<text dominant-baseline="central" text-anchor="end" style="font-size:12px;font-family:Inter, system-ui, -apple-system, Segoe UI, sans-serif;" transform="translate(102 227)" fill="#0F172A">p75</text>
<text dominant-baseline="central" text-anchor="end" style="font-size:12px;font-family:Inter, system-ui, -apple-system, Segoe UI, sans-serif;" transform="translate(102 273)" fill="#0F172A">p98</text>
<text dominant-baseline="central" text-anchor="middle" style="font-size:12px;font-family:Inter, system-ui, -apple-system, Segoe UI, sans-serif;" y="6" transform="translate(110 304)" fill="#64748B">0%</text>
<text dominant-baseline="central" text-anchor="middle" style="font-size:12px;font-family:Inter, system-ui, -apple-system, Segoe UI, sans-serif;" y="6" transform="translate(228 304)" fill="#64748B">0.5%</text>
<text dominant-baseline="central" text-anchor="middle" style="font-size:12px;font-family:Inter, system-ui, -apple-system, Segoe UI, sans-serif;" y="6" transform="translate(346 304)" fill="#64748B">1%</text>
<text dominant-baseline="central" text-anchor="middle" style="font-size:12px;font-family:Inter, system-ui, -apple-system, Segoe UI, sans-serif;" y="6" transform="translate(464 304)" fill="#64748B">1.5%</text>
<text dominant-baseline="central" text-anchor="middle" style="font-size:12px;font-family:Inter, system-ui, -apple-system, Segoe UI, sans-serif;" y="6" transform="translate(582 304)" fill="#64748B">2%</text>
<text dominant-baseline="central" text-anchor="middle" style="font-size:12px;font-family:Inter, system-ui, -apple-system, Segoe UI, sans-serif;" y="6" transform="translate(700 304)" fill="#64748B">2.5%</text>
<path d="M110 75.7L121.2 75.7A3 3 0 0 1 124.2 78.7L124.2 99.3A3 3 0 0 1 121.2 102.3L110 102.3L110 75.7Z" fill="#1860fb" ecmeta_series_index="0" ecmeta_data_index="0" ecmeta_ssr_type="chart" class="zr1-cls-4"></path>
<path d="M110 121.7L177.8 121.7A3 3 0 0 1 180.8 124.7L180.8 145.3A3 3 0 0 1 177.8 148.3L110 148.3L110 121.7Z" fill="#1860fb" ecmeta_series_index="0" ecmeta_data_index="1" ecmeta_ssr_type="chart" class="zr1-cls-4"></path>
<path d="M110 167.7L248.6 167.7A3 3 0 0 1 251.6 170.7L251.6 191.3A3 3 0 0 1 248.6 194.3L110 194.3L110 167.7Z" fill="#1860fb" ecmeta_series_index="0" ecmeta_data_index="2" ecmeta_ssr_type="chart" class="zr1-cls-4"></path>
<path d="M110 213.7L343 213.7A3 3 0 0 1 346 216.7L346 237.3A3 3 0 0 1 343 240.3L110 240.3L110 213.7Z" fill="#1860fb" ecmeta_series_index="0" ecmeta_data_index="3" ecmeta_ssr_type="chart" class="zr1-cls-4"></path>
<path d="M110 259.7L638 259.7A3 3 0 0 1 641 262.7L641 283.3A3 3 0 0 1 638 286.3L110 286.3L110 259.7Z" fill="#1860fb" ecmeta_series_index="0" ecmeta_data_index="4" ecmeta_ssr_type="chart" class="zr1-cls-4"></path>
<text dominant-baseline="central" text-anchor="start" style="font-size:12px;font-family:Inter, system-ui, -apple-system, Segoe UI, sans-serif;font-weight:600;" transform="translate(129.16 89)" fill="#0F172A">0.06%</text>
<text dominant-baseline="central" text-anchor="start" style="font-size:12px;font-family:Inter, system-ui, -apple-system, Segoe UI, sans-serif;font-weight:600;" transform="translate(185.8 135)" fill="#0F172A">0.3%</text>
<text dominant-baseline="central" text-anchor="start" style="font-size:12px;font-family:Inter, system-ui, -apple-system, Segoe UI, sans-serif;font-weight:600;" transform="translate(256.6 181)" fill="#0F172A">0.6%</text>
<text dominant-baseline="central" text-anchor="start" style="font-size:12px;font-family:Inter, system-ui, -apple-system, Segoe UI, sans-serif;font-weight:600;" transform="translate(351 227)" fill="#0F172A">1%</text>
<text dominant-baseline="central" text-anchor="start" style="font-size:12px;font-family:Inter, system-ui, -apple-system, Segoe UI, sans-serif;font-weight:600;" transform="translate(646 273)" fill="#0F172A">2.25%</text>
<path d="M-5 -5l397.7 0l0 48l-397.7 0Z" transform="translate(13 11)" fill="rgb(0,0,0)" fill-opacity="0" stroke="#3c3c41" stroke-width="0" class="zr1-cls-3"></path>
<text dominant-baseline="central" text-anchor="start" style="font-size:16px;font-family:Inter, system-ui, -apple-system, Segoe UI, sans-serif;font-weight:700;" xml:space="preserve" y="8" transform="translate(13 11)" fill="#3c3c41">Same salary, 40x the equity</text>
<text dominant-baseline="central" text-anchor="start" style="font-size:12px;font-family:Inter, system-ui, -apple-system, Segoe UI, sans-serif;" xml:space="preserve" y="32" transform="translate(13 11)" fill="#64748B">Equity offered inside a single salary band ($150K to $185K base, n=407)</text>
<style ><![CDATA[
.zr1-cls-3:hover {
pointer-events:none;
}
.zr1-cls-4:hover {
cursor:pointer;
fill:rgba(26,105,255,1);
}

]]>

</style>
<g opacity="0.9"><g transform="translate(608,12) scale(0.1)"><path fill="#1860fb" d="m118.8 111.3l47.7 28.7-83.4 50-50.1-28.6z"/><path fill="#1860fb" d="m33 60.6l51.8 28.7v100.7l-51.8-28.7z"/><path fill="#1860fb" d="m118.8 11.2l47.7 28.8v100.9l-47.7-28.8z"/><path fill="#1860fb" d="m118 11.5l47.2 28.6-82.6 50.1-49.6-28.6z"/></g><text x="634" y="22" dominant-baseline="central" font-family="Inter, system-ui, -apple-system, Segoe UI, sans-serif" font-size="12" font-weight="700" fill="#1860fb">CoderScreen</text></g></svg>