<svg width="780" height="360" xmlns="http://www.w3.org/2000/svg" xmlns:xlink="http://www.w3.org/1999/xlink" version="1.1" baseProfile="full" viewBox="0 0 780 360">
<rect width="780" height="360" x="0" y="0" fill="#fff"></rect>
<path d="M130.5 66L130.5 336" fill="none" pointer-events="visible" stroke="#E2E8F0" class="zr0-cls-0"></path>
<path d="M246.5 66L246.5 336" fill="none" pointer-events="visible" stroke="#E2E8F0" class="zr0-cls-0"></path>
<path d="M362.5 66L362.5 336" fill="none" pointer-events="visible" stroke="#E2E8F0" class="zr0-cls-0"></path>
<path d="M478.5 66L478.5 336" fill="none" pointer-events="visible" stroke="#E2E8F0" class="zr0-cls-0"></path>
<path d="M594.5 66L594.5 336" fill="none" pointer-events="visible" stroke="#E2E8F0" class="zr0-cls-0"></path>
<path d="M710.5 66L710.5 336" fill="none" pointer-events="visible" stroke="#E2E8F0" class="zr0-cls-0"></path>
<text dominant-baseline="central" text-anchor="end" style="font-size:12px;font-family:Inter, system-ui, -apple-system, Segoe UI, sans-serif;" transform="translate(122 88.5)" fill="#0F172A">Backend</text>
<text dominant-baseline="central" text-anchor="end" style="font-size:12px;font-family:Inter, system-ui, -apple-system, Segoe UI, sans-serif;" xml:space="preserve" transform="translate(122 133.5)" fill="#0F172A">Machine learning</text>
<text dominant-baseline="central" text-anchor="end" style="font-size:12px;font-family:Inter, system-ui, -apple-system, Segoe UI, sans-serif;" transform="translate(122 178.5)" fill="#0F172A">Full-stack</text>
<text dominant-baseline="central" text-anchor="end" style="font-size:12px;font-family:Inter, system-ui, -apple-system, Segoe UI, sans-serif;" transform="translate(122 223.5)" fill="#0F172A">Frontend</text>
<text dominant-baseline="central" text-anchor="end" style="font-size:12px;font-family:Inter, system-ui, -apple-system, Segoe UI, sans-serif;" transform="translate(122 268.5)" fill="#0F172A">DevOps</text>
<text dominant-baseline="central" text-anchor="end" style="font-size:12px;font-family:Inter, system-ui, -apple-system, Segoe UI, sans-serif;" xml:space="preserve" transform="translate(122 313.5)" fill="#0F172A">Engineering mgr</text>
<text dominant-baseline="central" text-anchor="middle" style="font-size:12px;font-family:Inter, system-ui, -apple-system, Segoe UI, sans-serif;" y="6" transform="translate(130 344)" fill="#64748B">$0K</text>
<text dominant-baseline="central" text-anchor="middle" style="font-size:12px;font-family:Inter, system-ui, -apple-system, Segoe UI, sans-serif;" y="6" transform="translate(246 344)" fill="#64748B">$50K</text>
<text dominant-baseline="central" text-anchor="middle" style="font-size:12px;font-family:Inter, system-ui, -apple-system, Segoe UI, sans-serif;" y="6" transform="translate(362 344)" fill="#64748B">$100K</text>
<text dominant-baseline="central" text-anchor="middle" style="font-size:12px;font-family:Inter, system-ui, -apple-system, Segoe UI, sans-serif;" y="6" transform="translate(478 344)" fill="#64748B">$150K</text>
<text dominant-baseline="central" text-anchor="middle" style="font-size:12px;font-family:Inter, system-ui, -apple-system, Segoe UI, sans-serif;" y="6" transform="translate(594 344)" fill="#64748B">$200K</text>
<text dominant-baseline="central" text-anchor="middle" style="font-size:12px;font-family:Inter, system-ui, -apple-system, Segoe UI, sans-serif;" y="6" transform="translate(710 344)" fill="#64748B">$250K</text>
<path d="M130 75L533 75A3 3 0 0 1 536 78L536 99A3 3 0 0 1 533 102L130 102L130 75Z" fill="#334155" ecmeta_series_index="0" ecmeta_data_index="0" ecmeta_ssr_type="chart" class="zr0-cls-1"></path>
<path d="M130 120L533 120A3 3 0 0 1 536 123L536 144A3 3 0 0 1 533 147L130 147L130 120Z" fill="#334155" ecmeta_series_index="0" ecmeta_data_index="1" ecmeta_ssr_type="chart" class="zr0-cls-1"></path>
<path d="M130 165L521.4 165A3 3 0 0 1 524.4 168L524.4 189A3 3 0 0 1 521.4 192L130 192L130 165Z" fill="#334155" ecmeta_series_index="0" ecmeta_data_index="2" ecmeta_ssr_type="chart" class="zr0-cls-1"></path>
<path d="M130 210L486.6 210A3 3 0 0 1 489.6 213L489.6 234A3 3 0 0 1 486.6 237L130 237L130 210Z" fill="#334155" ecmeta_series_index="0" ecmeta_data_index="3" ecmeta_ssr_type="chart" class="zr0-cls-1"></path>
<path d="M130 255L486.6 255A3 3 0 0 1 489.6 258L489.6 279A3 3 0 0 1 486.6 282L130 282L130 255Z" fill="#334155" ecmeta_series_index="0" ecmeta_data_index="4" ecmeta_ssr_type="chart" class="zr0-cls-1"></path>
<path d="M130 300L681.5 300A3 3 0 0 1 684.5 303L684.5 324A3 3 0 0 1 681.5 327L130 327L130 300Z" fill="#1860fb" ecmeta_series_index="0" ecmeta_data_index="5" ecmeta_ssr_type="chart" class="zr0-cls-2"></path>
<text dominant-baseline="central" text-anchor="start" style="font-size:12px;font-family:Inter, system-ui, -apple-system, Segoe UI, sans-serif;font-weight:600;" transform="translate(541 88.5)" fill="#0F172A">$175K</text>
<text dominant-baseline="central" text-anchor="start" style="font-size:12px;font-family:Inter, system-ui, -apple-system, Segoe UI, sans-serif;font-weight:600;" transform="translate(541 133.5)" fill="#0F172A">$175K</text>
<text dominant-baseline="central" text-anchor="start" style="font-size:12px;font-family:Inter, system-ui, -apple-system, Segoe UI, sans-serif;font-weight:600;" transform="translate(529.4 178.5)" fill="#0F172A">$170K</text>
<text dominant-baseline="central" text-anchor="start" style="font-size:12px;font-family:Inter, system-ui, -apple-system, Segoe UI, sans-serif;font-weight:600;" transform="translate(494.6 223.5)" fill="#0F172A">$155K</text>
<text dominant-baseline="central" text-anchor="start" style="font-size:12px;font-family:Inter, system-ui, -apple-system, Segoe UI, sans-serif;font-weight:600;" transform="translate(494.6 268.5)" fill="#0F172A">$155K</text>
<text dominant-baseline="central" text-anchor="start" style="font-size:12px;font-family:Inter, system-ui, -apple-system, Segoe UI, sans-serif;font-weight:600;" transform="translate(689.48 313.5)" fill="#0F172A">$239K</text>
<path d="M-5 -5l478.4 0l0 48l-478.4 0Z" transform="translate(13 11)" fill="rgb(0,0,0)" fill-opacity="0" stroke="#3c3c41" stroke-width="0" class="zr0-cls-0"></path>
<text dominant-baseline="central" text-anchor="start" style="font-size:16px;font-family:Inter, system-ui, -apple-system, Segoe UI, sans-serif;font-weight:700;" xml:space="preserve" y="8" transform="translate(13 11)" fill="#3c3c41">Almost every role pays about $170K</text>
<text dominant-baseline="central" text-anchor="start" style="font-size:12px;font-family:Inter, system-ui, -apple-system, Segoe UI, sans-serif;" xml:space="preserve" y="32" transform="translate(13 11)" fill="#64748B">Median base salary by role, for the YC engineering jobs that list one in dollars (n=2,016)</text>
<style ><![CDATA[
.zr0-cls-0:hover {
pointer-events:none;
}
.zr0-cls-1:hover {
cursor:pointer;
fill:rgba(56,71,93,1);
}
.zr0-cls-2:hover {
cursor:pointer;
fill:rgba(26,105,255,1);
}

]]>

</style>
<g opacity="0.9"><g transform="translate(608,12) scale(0.1)"><path fill="#1860fb" d="m118.8 111.3l47.7 28.7-83.4 50-50.1-28.6z"/><path fill="#1860fb" d="m33 60.6l51.8 28.7v100.7l-51.8-28.7z"/><path fill="#1860fb" d="m118.8 11.2l47.7 28.8v100.9l-47.7-28.8z"/><path fill="#1860fb" d="m118 11.5l47.2 28.6-82.6 50.1-49.6-28.6z"/></g><text x="634" y="22" dominant-baseline="central" font-family="Inter, system-ui, -apple-system, Segoe UI, sans-serif" font-size="12" font-weight="700" fill="#1860fb">CoderScreen</text></g></svg>